# xmcd
#
# Track frame offsets: 
#        150
#        13905
#        27787
#        52932
#        67870
#        93467
#        114157
#        133055
#        153430
#        172525
#        193032
#        207062
#
# Disc length: 3023 seconds
#
# Revision: 0
# Processed by: cddbd v1.4PL0 Copyright (c) Steve Scherf et al.
# Submitted via: ExactAudioCopy v0.90b3
#
DISCID=8d0bcd0c
DTITLE=The Nightwalkers - Nothing to lose
DYEAR=1998
DGENRE=
TTITLE0=Middle Of The Night
TTITLE1=Make A Change
TTITLE2=Hold Your Love
TTITLE3=Nothing To Lose
TTITLE4=Tired Blues
TTITLE5=Happy Home
TTITLE6=Cry
TTITLE7=Gettin' Straight
TTITLE8=Nightwalkin'
TTITLE9=I'm With You
TTITLE10=Push Comes To Shove
TTITLE11=Look Back Through The Years
EXTD=
EXTT0=
EXTT1=
EXTT2=
EXTT3=
EXTT4=
EXTT5=
EXTT6=
EXTT7=
EXTT8=
EXTT9=
EXTT10=
EXTT11=
PLAYORDER=
